<svg xmlns="http://www.w3.org/2000/svg" viewBox="0 0 17.3825 16.94" fill="none"><path fill-rule="evenodd" clip-rule="evenodd" d="M6.19125 1C5.72125 1 5.35125 1.2 5.11125 1.51C4.89125 1.79 4.74125 2.19 4.69125 2.7H12.6912C12.6513 2.19 12.5012 1.79 12.2713 1.51C12.0413 1.2 11.6612 1 11.1913 1H6.19125ZM3.68125 2.7C3.73125 2.04 3.93125 1.48 4.28125 1.03C4.72125 0.470001 5.38125 0 6.19125 0H11.1913C12.0013 0 12.6612 0.470001 13.1013 1.03C13.4513 1.48 13.6512 2.04 13.7012 2.7H16.8825C17.0151 2.7 17.1423 2.75268 17.2361 2.84645C17.3298 2.94021 17.3825 3.06739 17.3825 3.2C17.3825 3.33261 17.3298 3.45979 17.2361 3.55355C17.1423 3.64732 17.0151 3.7 16.8825 3.7H15.8825V16.44C15.8825 16.72 15.6625 16.94 15.3825 16.94H2.00125C1.86864 16.94 1.74147 16.8873 1.6477 16.7935C1.55393 16.6998 1.50125 16.5726 1.50125 16.44V3.7H0.50125C0.368642 3.7 0.241503 3.64732 0.147735 3.55355C0.053966 3.45979 0.00125003 3.33261 0.00125003 3.2C0.00125003 3.06739 0.053966 2.94021 0.147735 2.84645C0.241503 2.75268 0.368642 2.7 0.50125 2.7H3.68125ZM2.50125 3.7V15.94H14.8812V3.7H2.50125Z" fill="currentColor"/></svg>
