<svg width="24" height="24" viewBox="0 0 24 24" fill="none" xmlns="http://www.w3.org/2000/svg">
<path d="M9.5 7C9.5 6.20435 9.81607 5.44129 10.3787 4.87868C10.9413 4.31607 11.7044 4 12.5 4C13.2956 4 14.0587 4.31607 14.6213 4.87868C15.1839 5.44129 15.5 6.20435 15.5 7C15.5 7.79565 15.1839 8.55871 14.6213 9.12132C14.0587 9.68393 13.2956 10 12.5 10C11.7044 10 10.9413 9.68393 10.3787 9.12132C9.81607 8.55871 9.5 7.79565 9.5 7ZM12.5 3C11.4391 3 10.4217 3.42143 9.67157 4.17157C8.92143 4.92172 8.5 5.93913 8.5 7C8.5 8.06087 8.92143 9.07828 9.67157 9.82843C10.4217 10.5786 11.4391 11 12.5 11C13.5609 11 14.5783 10.5786 15.3284 9.82843C16.0786 9.07828 16.5 8.06087 16.5 7C16.5 5.93913 16.0786 4.92172 15.3284 4.17157C14.5783 3.42143 13.5609 3 12.5 3ZM18.08 15.15C19.2 15.97 19.91 17.39 19.99 20H5.01C5.09 17.4 5.8 15.97 6.91 15.15C8.16 14.25 10 14 12.5 14C15 14 16.85 14.26 18.08 15.15ZM12.5 13C10 13 7.85 13.24 6.33 14.35C4.77 15.48 4 17.43 4 20.5V21H21V20.5C21 17.43 20.23 15.48 18.67 14.35C17.15 13.25 15 13 12.5 13Z" fill="currentColor"/>
</svg>
