<svg xmlns="http://www.w3.org/2000/svg" viewBox="0 0 12.22 8.93979" fill="none"><path fill-rule="evenodd" clip-rule="evenodd" d="M12.0736 0.146393C12.1674 0.240157 12.22 0.367311 12.22 0.499893C12.22 0.632476 12.1674 0.759629 12.0736 0.853393L4.13364 8.79339C4.03988 8.88713 3.91273 8.93979 3.78014 8.93979C3.64756 8.93979 3.52041 8.88713 3.42664 8.79339L0.152644 5.51839C0.104889 5.47227 0.0667979 5.4171 0.0405934 5.3561C0.0143889 5.29509 0.000595786 5.22948 1.88782e-05 5.16309C-0.00055803 5.0967 0.012093 5.03086 0.0372334 4.96942C0.0623738 4.90797 0.0995004 4.85214 0.146447 4.8052C0.193393 4.75825 0.249219 4.72112 0.310667 4.69598C0.372115 4.67084 0.437955 4.65819 0.504345 4.65877C0.570734 4.65934 0.636345 4.67314 0.697347 4.69934C0.758349 4.72555 0.813521 4.76364 0.859644 4.81139L3.78164 7.73339L11.3676 0.146393C11.4614 0.0526578 11.5886 0 11.7211 0C11.8537 0 11.9809 0.0526578 12.0746 0.146393H12.0736Z" fill="currentColor"/></svg>
