<svg xmlns="http://www.w3.org/2000/svg" viewBox="0 0 24 24" fill="none"><path d="M13.537 7.80958C13.5684 7.73335 13.6182 7.66606 13.6819 7.61371C13.7455 7.56137 13.8212 7.52558 13.9021 7.50955C13.9829 7.49351 14.0665 7.49772 14.1454 7.52181C14.2242 7.54589 14.2959 7.58909 14.354 7.64758L18.354 11.6476C18.4006 11.694 18.4375 11.7492 18.4627 11.8099C18.4879 11.8707 18.5009 11.9358 18.5009 12.0016C18.5009 12.0673 18.4879 12.1325 18.4627 12.1932C18.4375 12.254 18.4006 12.3091 18.354 12.3556L14.354 16.3556C14.2601 16.4495 14.1328 16.5022 14 16.5022C13.8672 16.5022 13.7399 16.4495 13.646 16.3556C13.5521 16.2617 13.4994 16.1344 13.4994 16.0016C13.4994 15.8688 13.5521 15.7415 13.646 15.6476L16.793 12.5016H6C5.86739 12.5016 5.74021 12.4489 5.64645 12.3551C5.55268 12.2614 5.5 12.1342 5.5 12.0016C5.5 11.869 5.55268 11.7418 5.64645 11.648C5.74021 11.5543 5.86739 11.5016 6 11.5016H16.793L13.646 8.35558C13.5757 8.28563 13.5279 8.19637 13.5085 8.09915C13.4891 8.00193 13.499 7.90114 13.537 7.80958Z" fill="currentColor"/></svg>
