<svg xmlns="http://www.w3.org/2000/svg" viewBox="0 0 14 12" fill="none"><path d="M10 7C11.2095 7 12.2186 7.85886 12.4502 9H14V10H12.4502C12.2186 11.1411 11.2095 12 10 12C8.79051 12 7.78142 11.1411 7.5498 10H0V9H7.5498C7.78142 7.85886 8.79051 7 10 7ZM10 8C9.44772 8 9 8.44772 9 9C9 9.55228 9.44772 10 10 10C10.5523 10 11 9.55228 11 9C11 8.44772 10.5523 8 10 8ZM4 0C5.20949 0 6.21858 0.85886 6.4502 2H14V3H6.4502C6.21858 4.14114 5.20949 5 4 5C2.79051 5 1.78142 4.14114 1.5498 3H0V2H1.5498C1.78142 0.85886 2.79051 0 4 0ZM4 1C3.44772 1 3 1.44772 3 2C3 2.55228 3.44772 3 4 3C4.55228 3 5 2.55228 5 2C5 1.44772 4.55228 1 4 1Z" fill="currentColor"/></svg>
