<svg xmlns="http://www.w3.org/2000/svg" viewBox="0 0 13 14" fill="none"><path d="M6.5 0C7.29991 0 7.94012 0.319716 8.37012 0.849609C8.72647 1.32947 8.93461 1.90332 8.96973 2.5H12.5C12.6326 2.5 12.7597 2.55272 12.8535 2.64648C12.9473 2.74025 13 2.86739 13 3C13 3.13261 12.9473 3.25975 12.8535 3.35352C12.7597 3.44728 12.6326 3.5 12.5 3.5H11.25V13.5C11.25 13.6326 11.1973 13.7597 11.1035 13.8535C11.0097 13.9473 10.8826 14 10.75 14H2.25C1.97 14 1.75 13.78 1.75 13.5V3.5H0.5C0.367392 3.5 0.240253 3.44728 0.146484 3.35352C0.0527162 3.25975 0 3.13261 0 3C0 2.86739 0.0527162 2.74025 0.146484 2.64648C0.240253 2.55272 0.367392 2.5 0.5 2.5H4.03027C4.06481 1.90321 4.27301 1.32919 4.62988 0.849609C5.05988 0.319716 5.70009 0 6.5 0ZM2.75 3.5V13H10.25V3.5H2.75ZM5.0498 4.75C5.18237 4.75 5.30956 4.80277 5.40332 4.89648C5.49709 4.99025 5.5498 5.11739 5.5498 5.25V11.25C5.5498 11.3826 5.49709 11.5097 5.40332 11.6035C5.30956 11.6972 5.18237 11.75 5.0498 11.75C4.91726 11.75 4.79001 11.6972 4.69629 11.6035C4.60258 11.5098 4.5498 11.3826 4.5498 11.25V5.25C4.5498 5.11743 4.60258 4.99024 4.69629 4.89648C4.79001 4.80276 4.91726 4.75005 5.0498 4.75ZM7.9502 4.75C8.08273 4.75006 8.20999 4.80277 8.30371 4.89648C8.39741 4.99024 8.4502 5.11744 8.4502 5.25V11.25C8.4502 11.3826 8.39741 11.5098 8.30371 11.6035C8.20999 11.6972 8.08273 11.7499 7.9502 11.75C7.81764 11.75 7.69044 11.6972 7.59668 11.6035C7.50291 11.5097 7.4502 11.3826 7.4502 11.25V5.25C7.4502 5.11739 7.50291 4.99025 7.59668 4.89648C7.69044 4.80278 7.81764 4.75 7.9502 4.75ZM6.5 1C5.99 1 5.64016 1.19047 5.41016 1.48047C5.22025 1.72047 5.09979 2.08012 5.0498 2.5H7.9502C7.89021 2.08012 7.78973 1.72047 7.58984 1.48047C7.34984 1.19047 7.01 1 6.5 1Z" fill="currentColor"/></svg>
