<svg xmlns="http://www.w3.org/2000/svg" viewBox="0 0 18.6593 19" fill="none"><path d="M6.5 18.5C7.05228 18.5 7.5 18.0523 7.5 17.5C7.5 16.9477 7.05228 16.5 6.5 16.5C5.94772 16.5 5.5 16.9477 5.5 17.5C5.5 18.0523 5.94772 18.5 6.5 18.5Z" stroke="currentColor"/><path d="M15.5 18.5C16.0523 18.5 16.5 18.0523 16.5 17.5C16.5 16.9477 16.0523 16.5 15.5 16.5C14.9477 16.5 14.5 16.9477 14.5 17.5C14.5 18.0523 14.9477 18.5 15.5 18.5Z" stroke="currentColor"/><path d="M0.5 0.5H3.16928L5.36928 13.5H17.1593L18.1593 5.5H4.5" stroke="currentColor" stroke-linecap="round" stroke-linejoin="round"/></svg>
