<svg xmlns="http://www.w3.org/2000/svg" viewBox="0 0 13.0009 9.00221" fill="none"><path d="M8.037 0.309577C8.0684 0.233346 8.11816 0.166061 8.18186 0.113715C8.24555 0.0613683 8.3212 0.0255842 8.40207 0.00954873C8.48294 -0.00648674 8.56652 -0.00227593 8.64537 0.0218062C8.72422 0.0458883 8.79589 0.0890944 8.854 0.147577L12.854 4.14758C12.9006 4.19402 12.9375 4.2492 12.9627 4.30994C12.9879 4.37069 13.0009 4.43581 13.0009 4.50158C13.0009 4.56734 12.9879 4.63247 12.9627 4.69321C12.9375 4.75396 12.9006 4.80913 12.854 4.85558L8.854 8.85558C8.76011 8.94946 8.63278 9.00221 8.5 9.00221C8.36722 9.00221 8.23989 8.94946 8.146 8.85558C8.05211 8.76169 7.99937 8.63435 7.99937 8.50158C7.99937 8.3688 8.05211 8.24146 8.146 8.14758L11.293 5.00158H0.5C0.367392 5.00158 0.240215 4.9489 0.146447 4.85513C0.0526784 4.76136 0 4.63419 0 4.50158C0 4.36897 0.0526784 4.24179 0.146447 4.14802C0.240215 4.05426 0.367392 4.00158 0.5 4.00158H11.293L8.146 0.855577C8.07575 0.785627 8.02788 0.696372 8.00847 0.599153C7.98906 0.501934 7.99899 0.40114 8.037 0.309577Z" fill="currentColor"/></svg>
