<svg xmlns="http://www.w3.org/2000/svg" viewBox="0 0 11.9859 11.9859" fill="none"><path d="M6.98586 0H9.98586C10.5163 0 11.025 0.210714 11.4001 0.585786C11.7751 0.960859 11.9859 1.46957 11.9859 2V5C11.9821 5.26377 11.8743 5.51537 11.6859 5.7L5.68586 11.7C5.49893 11.8832 5.24761 11.9859 4.98586 11.9859C4.7241 11.9859 4.47279 11.8832 4.28586 11.7L0.285857 7.7C0.10263 7.51307 0 7.26175 0 7C0 6.73825 0.10263 6.48693 0.285857 6.3L6.28586 0.3C6.47049 0.111586 6.72209 0.00375705 6.98586 0V0ZM8.98586 2C8.98586 2.26522 9.09121 2.51957 9.27875 2.70711C9.46629 2.89464 9.72064 3 9.98586 3C10.2511 3 10.5054 2.89464 10.693 2.70711C10.8805 2.51957 10.9859 2.26522 10.9859 2C10.9859 1.73478 10.8805 1.48043 10.693 1.29289C10.5054 1.10536 10.2511 1 9.98586 1C9.72064 1 9.46629 1.10536 9.27875 1.29289C9.09121 1.48043 8.98586 1.73478 8.98586 2V2Z" fill="currentColor"/></svg>
