<svg xmlns="http://www.w3.org/2000/svg" viewBox="0 0 18.3938 18.9407" fill="none"><path fill-rule="evenodd" clip-rule="evenodd" d="M12.8324 3.03011C10.1255 0.323295 5.73693 0.323295 3.03011 3.03011C0.323295 5.73693 0.323295 10.1256 3.03011 12.8324C5.73693 15.5392 10.1255 15.5392 12.8324 12.8324C15.5392 10.1256 15.5392 5.73693 12.8324 3.03011ZM2.32301 2.32301C5.42035 -0.774337 10.4421 -0.774337 13.5395 2.32301C16.6101 5.39361 16.6366 10.3556 13.619 13.4588L18.2473 18.0871C18.4426 18.2824 18.4426 18.599 18.2473 18.7943C18.0521 18.9895 17.7355 18.9895 17.5402 18.7943L12.8778 14.1318C9.76383 16.6223 5.20839 16.4249 2.32301 13.5395C-0.774336 10.4421 -0.774336 5.42035 2.32301 2.32301Z" fill="currentColor"/></svg>
