<svg width="704" height="64" viewBox="0 0 704 64" fill="none" xmlns="http://www.w3.org/2000/svg">
<path d="M34.8074 17.5136L27.5103 43.4723C27.3189 44.1303 26.4097 44.7284 25.5962 44.7284H13.7413C12.8321 44.7284 12.3417 44.1303 12.5331 43.4723L19.8303 17.5136C20.0097 16.8557 20.8351 16.2575 21.7443 16.2575H33.5992C34.4127 16.2575 34.9988 16.8557 34.8074 17.5136ZM36.3386 6.52002H24.4837C16.9114 6.52002 9.35103 11.4606 7.64038 17.5136L0.343203 43.4723C-1.35549 49.5254 3.41758 54.4659 10.9899 54.4659H22.8448C30.4172 54.4659 37.9775 49.5254 39.6882 43.4723L46.9854 17.5136C48.684 11.4606 43.911 6.52002 36.3386 6.52002Z" fill="currentColor"/>
<path d="M76.8201 34.1176L68.0396 6.52002H54.6176L41.1357 54.4659H53.3137L61.0774 26.8683L69.7742 54.4659H83.28L96.7618 6.52002H84.5839L76.8201 34.1176Z" fill="currentColor"/>
<path d="M118.749 16.198H132.661L121.895 54.4661H134.073L144.839 16.198H158.584L161.336 6.44849H121.488L118.749 16.198Z" fill="currentColor"/>
<path d="M206.052 35.3613L208.792 25.6238H192.833L195.465 16.2691H216.531L219.271 6.51958H204.641L206.698 0L196.853 6.51958H186.015L172.533 54.4655H205.789L208.528 44.716H187.462L190.082 35.3613H206.052Z" fill="currentColor"/>
<path d="M247.06 17.5136L239.762 43.4723C239.583 44.1303 238.674 44.7284 237.848 44.7284H225.994C225.084 44.7284 224.594 44.1303 224.785 43.4723L232.082 17.5136C232.262 16.8557 233.087 16.2575 233.996 16.2575H245.851C246.677 16.2575 247.251 16.8557 247.06 17.5136ZM248.591 6.52002H236.736C229.164 6.52002 221.603 11.4606 219.893 17.5136L212.595 43.4723C210.885 49.5254 215.67 54.4659 223.242 54.4659H225.718L223.015 64.0001L232.86 57.4805L233.673 54.4659H235.097C242.669 54.4659 250.23 49.5254 251.94 43.4723L259.238 17.5136C260.936 11.4606 256.163 6.52002 248.591 6.52002Z" fill="currentColor"/>
<path d="M294.013 6.57983L283.581 43.6637C283.378 44.3815 282.493 44.9078 281.667 44.9078H269.812C268.903 44.9078 268.401 44.3815 268.604 43.6637L279.036 6.57983H266.858L256.426 43.6637C254.728 49.7168 259.513 54.6573 267.085 54.6573H278.94C286.512 54.6573 294.073 49.7168 295.783 43.6637L306.215 6.57983H294.037H294.013Z" fill="currentColor"/>
<path d="M312.806 6.52002L299.324 54.4659H311.502L324.996 6.52002H312.806Z" fill="currentColor"/>
<path d="M355.656 17.5136L353.048 26.7965C352.857 27.4545 351.948 28.0526 351.05 28.0526H337.712L341.026 16.2575H354.436C355.345 16.2575 355.847 16.7839 355.656 17.5136ZM367.834 17.5136C369.533 11.4486 364.748 6.52002 357.175 6.52002H331.575L318.094 54.4659H330.271L334.961 37.8021H348.299C355.955 37.8021 363.515 32.8615 365.226 26.7965L367.834 17.5136Z" fill="currentColor"/>
<path d="M361.973 54.4659H395.229L397.968 44.7164H376.902L379.534 35.3617H395.504L398.243 25.6242H382.273L384.905 16.2695H405.971L408.722 6.52002H375.466L361.973 54.4659Z" fill="currentColor"/>
<path d="M457.494 17.5136L454.886 26.7965C454.707 27.4545 453.797 28.0526 452.888 28.0526H439.55L442.864 16.2575H456.286C457.195 16.2575 457.697 16.7839 457.494 17.5136ZM469.684 17.5136C471.382 11.4486 466.597 6.52002 459.025 6.52002H433.425L419.943 54.4659H432.121L436.811 37.8021H450.149C457.805 37.8021 465.365 32.8615 467.076 26.7965L469.684 17.5136Z" fill="currentColor"/>
<path d="M500.966 17.5136L493.668 43.4723C493.477 44.1303 492.58 44.7284 491.754 44.7284H479.899C478.99 44.7284 478.5 44.1303 478.691 43.4723L485.988 17.5136C486.168 16.8557 486.993 16.2575 487.902 16.2575H499.757C500.583 16.2575 501.157 16.8557 500.966 17.5136ZM502.497 6.52002H490.642C483.069 6.52002 475.509 11.4606 473.798 17.5136L466.501 43.4723C464.791 49.5254 469.588 54.4659 477.148 54.4659H489.003C496.575 54.4659 504.136 49.5254 505.846 43.4723L513.143 17.5136C514.842 11.4606 510.069 6.52002 502.497 6.52002Z" fill="currentColor"/>
<path d="M547.931 6.57983L537.499 43.6637C537.296 44.3815 536.411 44.9078 535.585 44.9078H523.731C522.821 44.9078 522.319 44.3815 522.51 43.6637L532.942 6.57983H520.764L510.332 43.6637C508.622 49.7168 513.407 54.6573 520.991 54.6573H532.846C540.418 54.6573 547.979 49.7168 549.689 43.6637L560.121 6.57983H547.943H547.931Z" fill="currentColor"/>
<path d="M589.142 17.5136L586.534 26.7965C586.355 27.4545 585.445 28.0526 584.536 28.0526H571.198L574.512 16.2575H587.934C588.843 16.2575 589.345 16.7839 589.142 17.5136ZM590.673 6.52002H565.073L551.591 54.4659H563.769L568.459 37.8021H574.966L578.758 54.4659H592.18L588.209 36.6896C593.233 34.9072 597.504 31.1629 598.724 26.8085L601.332 17.5256C603.03 11.4725 598.257 6.53199 590.673 6.53199" fill="currentColor"/>
<path d="M659.949 36.8094H647.759L645.892 43.4606C645.701 44.1185 644.804 44.7167 643.978 44.7167H632.124C631.214 44.7167 630.724 44.1185 630.915 43.4606L638.212 17.5019C638.392 16.8439 639.217 16.2458 640.126 16.2458H651.981C652.795 16.2458 653.381 16.8439 653.19 17.5019L651.371 23.9617H663.549L665.368 17.5019C667.066 11.4488 662.281 6.5083 654.721 6.5083H642.866C635.294 6.5083 627.733 11.4488 626.023 17.5019L618.725 43.4606C617.027 49.5136 621.812 54.4542 629.384 54.4542H631.43L628.726 63.9883L638.571 57.4688L639.373 54.4542H641.227C648.799 54.4542 656.36 49.5136 658.07 43.4606L659.949 36.8094Z" fill="currentColor"/>
<path d="M680.512 36.6178L688.3 24.4399L689.149 36.6178H680.512ZM699.927 6.52002H686.673L656.228 54.4659H669.148L674.304 46.3673H689.855L690.453 54.4659H703.373L699.903 6.52002H699.927Z" fill="currentColor"/>
<path d="M177.641 6.44849H169.829L164.422 25.5527L174.267 19.0331L177.641 6.44849Z" fill="currentColor"/>
</svg>
